<svg width="91" height="91" viewBox="0 0 91 91" fill="none" xmlns="http://www.w3.org/2000/svg">
<g clip-path="url(#clip0_3_4071)">
<path d="M67.5294 16.9484C67.226 16.9484 66.9227 16.8726 66.6573 16.7209C59.3773 12.9672 53.0831 11.3747 45.5377 11.3747C38.0302 11.3747 30.9019 13.1568 24.4181 16.7209C23.5081 17.2138 22.3706 16.8726 21.8398 15.9626C21.3469 15.0526 21.6881 13.8772 22.5981 13.3843C29.6506 9.55467 37.3856 7.58301 45.5377 7.58301C53.6139 7.58301 60.6664 9.36509 68.4014 13.3463C69.3494 13.8393 69.6906 14.9768 69.1977 15.8868C68.8564 16.5693 68.2119 16.9484 67.5294 16.9484ZM13.2706 36.8547C12.8914 36.8547 12.5123 36.7409 12.171 36.5134C11.2989 35.9068 11.1094 34.7313 11.716 33.8593C15.4698 28.5509 20.2473 24.3801 25.9348 21.4605C37.8406 15.318 53.0831 15.2801 65.0269 21.4226C70.7144 24.3422 75.4919 28.4751 79.2456 33.7455C79.8523 34.5797 79.6627 35.793 78.7906 36.3997C77.9185 37.0063 76.7431 36.8168 76.1364 35.9447C72.7239 31.1672 68.4014 27.4134 63.2827 24.7972C52.4006 19.2234 38.4852 19.2234 27.641 24.8351C22.4844 27.4893 18.1619 31.2809 14.7494 36.0584C14.446 36.5893 13.8773 36.8547 13.2706 36.8547ZM36.9685 82.6201C36.4756 82.6201 35.9827 82.4305 35.6414 82.0513C32.3427 78.7526 30.5606 76.6293 28.0202 72.0413C25.4039 67.3776 24.0389 61.6901 24.0389 55.5855C24.0389 44.3243 33.6698 35.1484 45.4998 35.1484C57.3298 35.1484 66.9606 44.3243 66.9606 55.5855C66.9606 56.6472 66.1264 57.4813 65.0648 57.4813C64.0031 57.4813 63.1689 56.6472 63.1689 55.5855C63.1689 46.4097 55.2444 38.9401 45.4998 38.9401C35.7552 38.9401 27.8306 46.4097 27.8306 55.5855C27.8306 61.0455 29.0439 66.0884 31.3569 70.1834C33.7835 74.5438 35.4519 76.4018 38.3714 79.3593C39.0919 80.1176 39.0919 81.293 38.3714 82.0513C37.9544 82.4305 37.4614 82.6201 36.9685 82.6201ZM64.1548 75.6055C59.6427 75.6055 55.6614 74.468 52.4006 72.2309C46.751 68.4013 43.3764 62.183 43.3764 55.5855C43.3764 54.5238 44.2106 53.6897 45.2723 53.6897C46.3339 53.6897 47.1681 54.5238 47.1681 55.5855C47.1681 60.9318 49.8981 65.9747 54.5239 69.0838C57.216 70.9038 60.3631 71.7759 64.1548 71.7759C65.0648 71.7759 66.5814 71.6622 68.0981 71.3968C69.1218 71.2072 70.1077 71.8897 70.2973 72.9513C70.4869 73.9751 69.8044 74.9609 68.7427 75.1505C66.5814 75.5676 64.6856 75.6055 64.1548 75.6055ZM56.5335 83.4163C56.3819 83.4163 56.1923 83.3784 56.0406 83.3405C50.0119 81.6722 46.0685 79.4351 41.9356 75.378C36.6273 70.1076 33.7077 63.093 33.7077 55.5855C33.7077 49.443 38.9402 44.438 45.386 44.438C51.8319 44.438 57.0644 49.443 57.0644 55.5855C57.0644 59.6426 60.5906 62.9413 64.951 62.9413C69.3114 62.9413 72.8377 59.6426 72.8377 55.5855C72.8377 41.2909 60.5148 29.6884 45.3481 29.6884C34.5798 29.6884 24.7214 35.6793 20.2852 44.9688C18.8064 48.0401 18.0481 51.6422 18.0481 55.5855C18.0481 58.543 18.3135 63.2068 20.5885 69.2734C20.9677 70.2593 20.4748 71.3588 19.4889 71.7001C18.5031 72.0793 17.4035 71.5484 17.0623 70.6005C15.2044 65.6334 14.2944 60.7043 14.2944 55.5855C14.2944 51.0355 15.1664 46.9026 16.8727 43.3005C21.9156 32.7218 33.101 25.8588 45.3481 25.8588C62.6002 25.8588 76.6293 39.1676 76.6293 55.5476C76.6293 61.6901 71.3969 66.6951 64.951 66.6951C58.5052 66.6951 53.2727 61.6901 53.2727 55.5476C53.2727 51.4905 49.7464 48.1918 45.386 48.1918C41.0256 48.1918 37.4994 51.4905 37.4994 55.5476C37.4994 62.0313 40.0019 68.098 44.5898 72.648C48.1919 76.2122 51.6423 78.1838 56.9885 79.6626C58.0123 79.928 58.581 80.9897 58.3156 81.9755C58.126 82.8476 57.3298 83.4163 56.5335 83.4163Z" fill="#4318FF"/>
</g>
<defs>
<clipPath id="clip0_3_4071">
<rect width="91" height="91" fill="white"/>
</clipPath>
</defs>
</svg>
