<svg width="20" height="25" viewBox="0 0 20 25" fill="none" xmlns="http://www.w3.org/2000/svg">
<path d="M18.7265 13.4082C16.8948 8.64817 10.3732 8.3915 11.9482 1.47317C12.0648 0.959838 11.5165 0.563172 11.0732 0.831505C6.83817 3.32817 3.79317 8.33317 6.34817 14.8898C6.55817 15.4265 5.92817 15.9282 5.47317 15.5782C3.3615 13.9798 3.13984 11.6815 3.3265 10.0365C3.3965 9.42984 2.60317 9.13817 2.26484 9.63984C1.4715 10.8532 0.666504 12.8132 0.666504 15.7648C1.10984 22.2982 6.62817 24.3048 8.61151 24.5615C11.4465 24.9232 14.5148 24.3982 16.7198 22.3798C19.1465 20.1282 20.0332 16.5348 18.7265 13.4082ZM7.89984 19.2765C9.57984 18.8682 10.4432 17.6548 10.6765 16.5815C11.0615 14.9132 9.5565 13.2798 10.5715 10.6432C10.9565 12.8248 14.3865 14.1898 14.3865 16.5698C14.4798 19.5215 11.2832 22.0532 7.89984 19.2765Z" fill="#EE5D50"/>
</svg>
